<?xml version="1.0" encoding="UTF-8"?>
<!DOCTYPE svg PUBLIC "-//W3C//DTD SVG 1.1//EN" "http://www.w3.org/Graphics/SVG/1.1/DTD/svg11.dtd">
<svg xmlns="http://www.w3.org/2000/svg" version="1.1" width="128px" height="128px" style="shape-rendering:geometricPrecision; text-rendering:geometricPrecision; image-rendering:optimizeQuality; fill-rule:evenodd; clip-rule:evenodd" xmlns:xlink="http://www.w3.org/1999/xlink">
<g><path style="opacity:0.894" fill="#000000" d="M 18.5,5.5 C 48.8352,5.33335 79.1685,5.50002 109.5,6C 116.667,7.83333 121.167,12.3333 123,19.5C 123.667,50.1667 123.667,80.8333 123,111.5C 121.167,118.667 116.667,123.167 109.5,125C 79.1667,125.667 48.8333,125.667 18.5,125C 10.5557,122.723 5.72241,117.556 4,109.5C 3.33333,80.1667 3.33333,50.8333 4,21.5C 5.91031,13.427 10.7436,8.09364 18.5,5.5 Z"/></g>
<g><path style="opacity:1" fill="#7e7e7e" d="M 64.5,30.5 C 57.9221,29.5399 51.2554,29.2066 44.5,29.5C 44.5,32.8333 44.5,36.1667 44.5,39.5C 43.5166,35.7016 43.1832,31.7016 43.5,27.5C 50.175,27.3337 56.8417,27.5004 63.5,28C 64.2524,28.6708 64.5858,29.5041 64.5,30.5 Z"/></g>
<g><path style="opacity:1" fill="#f7f7f7" d="M 64.5,30.5 C 64.5,30.8333 64.5,31.1667 64.5,31.5C 65.3475,37.0594 67.3475,42.0594 70.5,46.5C 70.2355,50.6533 71.5688,53.9867 74.5,56.5C 74.5,56.8333 74.5,57.1667 74.5,57.5C 75.9623,62.3966 77.129,67.3966 78,72.5C 80.2515,76.5798 82.4182,80.5798 84.5,84.5C 87.6414,85.3213 90.9748,85.8213 94.5,86C 96.2036,88.2375 97.2036,90.7375 97.5,93.5C 91.1735,95.4976 84.8402,97.4976 78.5,99.5C 77.8333,99.1667 77.1667,98.8333 76.5,98.5C 72.4781,87.9259 67.9781,77.5925 63,67.5C 56.5849,76.6618 50.4183,85.9952 44.5,95.5C 39.8804,96.4933 35.2137,96.8266 30.5,96.5C 38.8844,82.0769 47.5511,67.7435 56.5,53.5C 57.7969,51.0268 57.7969,48.6934 56.5,46.5C 54.8875,40.4352 50.8875,38.1019 44.5,39.5C 44.5,36.1667 44.5,32.8333 44.5,29.5C 51.2554,29.2066 57.9221,29.5399 64.5,30.5 Z"/></g>
<g><path style="opacity:1" fill="#9a9a9a" d="M 64.5,31.5 C 67.2624,36.1049 69.2624,41.1049 70.5,46.5C 67.3475,42.0594 65.3475,37.0594 64.5,31.5 Z"/></g>
<g><path style="opacity:1" fill="#acacac" d="M 70.5,46.5 C 72.3459,49.54 73.6792,52.8733 74.5,56.5C 71.5688,53.9867 70.2355,50.6533 70.5,46.5 Z"/></g>
<g><path style="opacity:1" fill="#a6a6a6" d="M 56.5,46.5 C 57.7969,48.6934 57.7969,51.0268 56.5,53.5C 47.5511,67.7435 38.8844,82.0769 30.5,96.5C 29.6236,96.6309 28.9569,96.2975 28.5,95.5C 37.0819,80.6674 45.9152,66.0007 55,51.5C 56.0086,49.9751 56.5086,48.3084 56.5,46.5 Z"/></g>
<g><path style="opacity:1" fill="#aeaeae" d="M 74.5,57.5 C 78.404,65.868 81.7373,74.5346 84.5,83.5C 84.5,83.8333 84.5,84.1667 84.5,84.5C 82.4182,80.5798 80.2515,76.5798 78,72.5C 77.129,67.3966 75.9623,62.3966 74.5,57.5 Z"/></g>
<g><path style="opacity:1" fill="#6e6e6e" d="M 96.5,85.5 C 95.4062,84.4183 94.0729,83.7517 92.5,83.5C 89.8853,84.2692 87.2186,84.6025 84.5,84.5C 84.5,84.1667 84.5,83.8333 84.5,83.5C 87.3443,82.9421 90.1776,82.2755 93,81.5C 95.3271,81.8223 96.4938,83.1556 96.5,85.5 Z"/></g>
<g><path style="opacity:1" fill="#bdbdbd" d="M 96.5,85.5 C 97.4805,87.396 98.4805,89.396 99.5,91.5C 99.1445,92.5223 98.4778,93.189 97.5,93.5C 97.2036,90.7375 96.2036,88.2375 94.5,86C 90.9748,85.8213 87.6414,85.3213 84.5,84.5C 87.2186,84.6025 89.8853,84.2692 92.5,83.5C 94.0729,83.7517 95.4062,84.4183 96.5,85.5 Z"/></g>
</svg>
